<mxfile host="www.draw.io" modified="2019-12-17T12:14:34.521Z" agent="Mozilla/5.0 (Windows NT 10.0; Win64; x64) AppleWebKit/537.36 (KHTML, like Gecko) Chrome/79.0.3945.79 Safari/537.36" etag="N0oSQLGlxUGJQJUP7Ygd" version="12.4.2" type="github" pages="1">
  <diagram id="Zf1moELY5aSaE2jxueNO" name="Page-1">
    <mxGraphModel dx="1370" dy="792" grid="1" gridSize="10" guides="1" tooltips="1" connect="1" arrows="1" fold="1" page="1" pageScale="1" pageWidth="1100" pageHeight="850" math="0" shadow="0">
      <root>
        <mxCell id="0"/>
        <mxCell id="1" parent="0"/>
        <mxCell id="HJ_L1rE2T7s1D5HdSCg_-39" value="" style="rounded=0;whiteSpace=wrap;html=1;fillColor=none;" vertex="1" parent="1">
          <mxGeometry x="650" y="460" width="120" height="90" as="geometry"/>
        </mxCell>
        <mxCell id="HJ_L1rE2T7s1D5HdSCg_-25" value="" style="rounded=0;whiteSpace=wrap;html=1;fillColor=none;" vertex="1" parent="1">
          <mxGeometry x="495" y="460" width="120" height="90" as="geometry"/>
        </mxCell>
        <mxCell id="LaCptTWRg6OUw0mQEfFn-7" value="" style="group" parent="1" vertex="1" connectable="0">
          <mxGeometry x="335" y="370" width="110" height="40" as="geometry"/>
        </mxCell>
        <mxCell id="LaCptTWRg6OUw0mQEfFn-5" value="" style="rounded=1;whiteSpace=wrap;html=1;fillColor=none;strokeColor=#9673a6;" parent="LaCptTWRg6OUw0mQEfFn-7" vertex="1">
          <mxGeometry width="110" height="40" as="geometry"/>
        </mxCell>
        <mxCell id="LaCptTWRg6OUw0mQEfFn-1" value="TOR" style="rounded=0;whiteSpace=wrap;html=1;fillColor=#e1d5e7;strokeColor=none;" parent="LaCptTWRg6OUw0mQEfFn-7" vertex="1">
          <mxGeometry x="10" y="10" width="40" height="20" as="geometry"/>
        </mxCell>
        <mxCell id="LaCptTWRg6OUw0mQEfFn-2" value="TOR" style="rounded=0;whiteSpace=wrap;html=1;fillColor=#e1d5e7;strokeColor=none;" parent="LaCptTWRg6OUw0mQEfFn-7" vertex="1">
          <mxGeometry x="60" y="10" width="40" height="20" as="geometry"/>
        </mxCell>
        <mxCell id="LaCptTWRg6OUw0mQEfFn-3" value="" style="endArrow=none;html=1;strokeWidth=2;entryX=0;entryY=0.5;entryDx=0;entryDy=0;exitX=1;exitY=0.5;exitDx=0;exitDy=0;" parent="LaCptTWRg6OUw0mQEfFn-7" source="LaCptTWRg6OUw0mQEfFn-1" target="LaCptTWRg6OUw0mQEfFn-2" edge="1">
          <mxGeometry width="50" height="50" relative="1" as="geometry">
            <mxPoint x="10" y="100" as="sourcePoint"/>
            <mxPoint x="60" y="50" as="targetPoint"/>
          </mxGeometry>
        </mxCell>
        <mxCell id="LaCptTWRg6OUw0mQEfFn-9" value="" style="group" parent="1" vertex="1" connectable="0">
          <mxGeometry x="495" y="370" width="110" height="40" as="geometry"/>
        </mxCell>
        <mxCell id="LaCptTWRg6OUw0mQEfFn-10" value="" style="rounded=1;whiteSpace=wrap;html=1;fillColor=none;strokeColor=#9673a6;" parent="LaCptTWRg6OUw0mQEfFn-9" vertex="1">
          <mxGeometry width="110" height="40" as="geometry"/>
        </mxCell>
        <mxCell id="LaCptTWRg6OUw0mQEfFn-11" value="TOR" style="rounded=0;whiteSpace=wrap;html=1;fillColor=#e1d5e7;strokeColor=none;" parent="LaCptTWRg6OUw0mQEfFn-9" vertex="1">
          <mxGeometry x="10" y="10" width="40" height="20" as="geometry"/>
        </mxCell>
        <mxCell id="LaCptTWRg6OUw0mQEfFn-12" value="TOR" style="rounded=0;whiteSpace=wrap;html=1;fillColor=#e1d5e7;strokeColor=none;" parent="LaCptTWRg6OUw0mQEfFn-9" vertex="1">
          <mxGeometry x="60" y="10" width="40" height="20" as="geometry"/>
        </mxCell>
        <mxCell id="LaCptTWRg6OUw0mQEfFn-13" value="" style="endArrow=none;html=1;strokeWidth=2;entryX=0;entryY=0.5;entryDx=0;entryDy=0;exitX=1;exitY=0.5;exitDx=0;exitDy=0;" parent="LaCptTWRg6OUw0mQEfFn-9" source="LaCptTWRg6OUw0mQEfFn-11" target="LaCptTWRg6OUw0mQEfFn-12" edge="1">
          <mxGeometry width="50" height="50" relative="1" as="geometry">
            <mxPoint x="10" y="100" as="sourcePoint"/>
            <mxPoint x="60" y="50" as="targetPoint"/>
          </mxGeometry>
        </mxCell>
        <mxCell id="LaCptTWRg6OUw0mQEfFn-14" value="" style="group" parent="1" vertex="1" connectable="0">
          <mxGeometry x="655" y="370" width="110" height="40" as="geometry"/>
        </mxCell>
        <mxCell id="LaCptTWRg6OUw0mQEfFn-15" value="" style="rounded=1;whiteSpace=wrap;html=1;fillColor=none;strokeColor=#9673a6;" parent="LaCptTWRg6OUw0mQEfFn-14" vertex="1">
          <mxGeometry width="110" height="40" as="geometry"/>
        </mxCell>
        <mxCell id="LaCptTWRg6OUw0mQEfFn-16" value="TOR" style="rounded=0;whiteSpace=wrap;html=1;fillColor=#e1d5e7;strokeColor=none;" parent="LaCptTWRg6OUw0mQEfFn-14" vertex="1">
          <mxGeometry x="10" y="10" width="40" height="20" as="geometry"/>
        </mxCell>
        <mxCell id="LaCptTWRg6OUw0mQEfFn-17" value="TOR" style="rounded=0;whiteSpace=wrap;html=1;fillColor=#e1d5e7;strokeColor=none;" parent="LaCptTWRg6OUw0mQEfFn-14" vertex="1">
          <mxGeometry x="60" y="10" width="40" height="20" as="geometry"/>
        </mxCell>
        <mxCell id="LaCptTWRg6OUw0mQEfFn-18" value="" style="endArrow=none;html=1;strokeWidth=2;entryX=0;entryY=0.5;entryDx=0;entryDy=0;exitX=1;exitY=0.5;exitDx=0;exitDy=0;" parent="LaCptTWRg6OUw0mQEfFn-14" source="LaCptTWRg6OUw0mQEfFn-16" target="LaCptTWRg6OUw0mQEfFn-17" edge="1">
          <mxGeometry width="50" height="50" relative="1" as="geometry">
            <mxPoint x="10" y="100" as="sourcePoint"/>
            <mxPoint x="60" y="50" as="targetPoint"/>
          </mxGeometry>
        </mxCell>
        <mxCell id="LaCptTWRg6OUw0mQEfFn-19" value="" style="rounded=0;whiteSpace=wrap;html=1;fillColor=none;" parent="1" vertex="1">
          <mxGeometry x="340" y="470" width="20" height="60" as="geometry"/>
        </mxCell>
        <mxCell id="LaCptTWRg6OUw0mQEfFn-21" value="" style="rounded=0;whiteSpace=wrap;html=1;fillColor=none;" parent="1" vertex="1">
          <mxGeometry x="370" y="470" width="20" height="60" as="geometry"/>
        </mxCell>
        <mxCell id="LaCptTWRg6OUw0mQEfFn-22" value="" style="rounded=0;whiteSpace=wrap;html=1;fillColor=none;" parent="1" vertex="1">
          <mxGeometry x="420" y="470" width="20" height="60" as="geometry"/>
        </mxCell>
        <mxCell id="LaCptTWRg6OUw0mQEfFn-23" value="" style="endArrow=none;dashed=1;html=1;strokeWidth=1;" parent="1" edge="1">
          <mxGeometry width="50" height="50" relative="1" as="geometry">
            <mxPoint x="400" y="499.76" as="sourcePoint"/>
            <mxPoint x="410" y="499.76" as="targetPoint"/>
          </mxGeometry>
        </mxCell>
        <mxCell id="HJ_L1rE2T7s1D5HdSCg_-1" value="" style="whiteSpace=wrap;html=1;aspect=fixed;fillColor=#008a00;strokeColor=#005700;fontColor=#ffffff;" vertex="1" parent="1">
          <mxGeometry x="345" y="510" width="10" height="10" as="geometry"/>
        </mxCell>
        <mxCell id="HJ_L1rE2T7s1D5HdSCg_-2" value="" style="whiteSpace=wrap;html=1;aspect=fixed;fillColor=#008a00;strokeColor=#005700;fontColor=#ffffff;" vertex="1" parent="1">
          <mxGeometry x="425" y="510" width="10" height="10" as="geometry"/>
        </mxCell>
        <mxCell id="HJ_L1rE2T7s1D5HdSCg_-3" value="" style="whiteSpace=wrap;html=1;aspect=fixed;fillColor=#008a00;strokeColor=#005700;fontColor=#ffffff;" vertex="1" parent="1">
          <mxGeometry x="345" y="495" width="10" height="10" as="geometry"/>
        </mxCell>
        <mxCell id="HJ_L1rE2T7s1D5HdSCg_-4" value="" style="whiteSpace=wrap;html=1;aspect=fixed;fillColor=#008a00;strokeColor=#005700;fontColor=#ffffff;" vertex="1" parent="1">
          <mxGeometry x="345" y="480" width="10" height="10" as="geometry"/>
        </mxCell>
        <mxCell id="HJ_L1rE2T7s1D5HdSCg_-5" value="" style="whiteSpace=wrap;html=1;aspect=fixed;fillColor=#0050ef;strokeColor=#001DBC;fontColor=#ffffff;" vertex="1" parent="1">
          <mxGeometry x="375" y="495" width="10" height="10" as="geometry"/>
        </mxCell>
        <mxCell id="HJ_L1rE2T7s1D5HdSCg_-6" value="" style="whiteSpace=wrap;html=1;aspect=fixed;fillColor=#008a00;strokeColor=#005700;fontColor=#ffffff;" vertex="1" parent="1">
          <mxGeometry x="375" y="510" width="10" height="10" as="geometry"/>
        </mxCell>
        <mxCell id="HJ_L1rE2T7s1D5HdSCg_-8" value="" style="whiteSpace=wrap;html=1;aspect=fixed;fillColor=#0050ef;strokeColor=#001DBC;fontColor=#ffffff;" vertex="1" parent="1">
          <mxGeometry x="425" y="495" width="10" height="10" as="geometry"/>
        </mxCell>
        <mxCell id="HJ_L1rE2T7s1D5HdSCg_-9" value="" style="whiteSpace=wrap;html=1;aspect=fixed;fillColor=#0050ef;strokeColor=#001DBC;fontColor=#ffffff;" vertex="1" parent="1">
          <mxGeometry x="425" y="480" width="10" height="10" as="geometry"/>
        </mxCell>
        <mxCell id="HJ_L1rE2T7s1D5HdSCg_-10" value="Hosts" style="text;html=1;strokeColor=none;fillColor=none;align=center;verticalAlign=middle;whiteSpace=wrap;rounded=0;" vertex="1" parent="1">
          <mxGeometry x="360" y="530" width="40" height="20" as="geometry"/>
        </mxCell>
        <mxCell id="HJ_L1rE2T7s1D5HdSCg_-11" value="" style="rounded=0;whiteSpace=wrap;html=1;fillColor=none;" vertex="1" parent="1">
          <mxGeometry x="330" y="460" width="120" height="90" as="geometry"/>
        </mxCell>
        <mxCell id="HJ_L1rE2T7s1D5HdSCg_-12" value="" style="rounded=0;whiteSpace=wrap;html=1;fillColor=none;" vertex="1" parent="1">
          <mxGeometry x="505" y="470" width="20" height="60" as="geometry"/>
        </mxCell>
        <mxCell id="HJ_L1rE2T7s1D5HdSCg_-13" value="" style="rounded=0;whiteSpace=wrap;html=1;fillColor=none;" vertex="1" parent="1">
          <mxGeometry x="535" y="470" width="20" height="60" as="geometry"/>
        </mxCell>
        <mxCell id="HJ_L1rE2T7s1D5HdSCg_-14" value="" style="rounded=0;whiteSpace=wrap;html=1;fillColor=none;" vertex="1" parent="1">
          <mxGeometry x="585" y="470" width="20" height="60" as="geometry"/>
        </mxCell>
        <mxCell id="HJ_L1rE2T7s1D5HdSCg_-15" value="" style="endArrow=none;dashed=1;html=1;strokeWidth=1;" edge="1" parent="1">
          <mxGeometry width="50" height="50" relative="1" as="geometry">
            <mxPoint x="565" y="499.76" as="sourcePoint"/>
            <mxPoint x="575" y="499.76" as="targetPoint"/>
          </mxGeometry>
        </mxCell>
        <mxCell id="HJ_L1rE2T7s1D5HdSCg_-16" value="" style="whiteSpace=wrap;html=1;aspect=fixed;fillColor=#e51400;strokeColor=#B20000;fontColor=#ffffff;" vertex="1" parent="1">
          <mxGeometry x="510" y="510" width="10" height="10" as="geometry"/>
        </mxCell>
        <mxCell id="HJ_L1rE2T7s1D5HdSCg_-17" value="" style="whiteSpace=wrap;html=1;aspect=fixed;fillColor=#e51400;strokeColor=#B20000;fontColor=#ffffff;" vertex="1" parent="1">
          <mxGeometry x="590" y="510" width="10" height="10" as="geometry"/>
        </mxCell>
        <mxCell id="HJ_L1rE2T7s1D5HdSCg_-20" value="" style="whiteSpace=wrap;html=1;aspect=fixed;fillColor=#e51400;strokeColor=#B20000;fontColor=#ffffff;" vertex="1" parent="1">
          <mxGeometry x="540" y="495" width="10" height="10" as="geometry"/>
        </mxCell>
        <mxCell id="HJ_L1rE2T7s1D5HdSCg_-22" value="" style="whiteSpace=wrap;html=1;aspect=fixed;fillColor=#0050ef;strokeColor=#001DBC;fontColor=#ffffff;" vertex="1" parent="1">
          <mxGeometry x="590" y="495" width="10" height="10" as="geometry"/>
        </mxCell>
        <mxCell id="HJ_L1rE2T7s1D5HdSCg_-24" value="Hosts" style="text;html=1;strokeColor=none;fillColor=none;align=center;verticalAlign=middle;whiteSpace=wrap;rounded=0;" vertex="1" parent="1">
          <mxGeometry x="525" y="530" width="40" height="20" as="geometry"/>
        </mxCell>
        <mxCell id="HJ_L1rE2T7s1D5HdSCg_-26" value="" style="rounded=0;whiteSpace=wrap;html=1;fillColor=none;" vertex="1" parent="1">
          <mxGeometry x="660" y="470" width="20" height="60" as="geometry"/>
        </mxCell>
        <mxCell id="HJ_L1rE2T7s1D5HdSCg_-27" value="" style="rounded=0;whiteSpace=wrap;html=1;fillColor=none;" vertex="1" parent="1">
          <mxGeometry x="690" y="470" width="20" height="60" as="geometry"/>
        </mxCell>
        <mxCell id="HJ_L1rE2T7s1D5HdSCg_-28" value="" style="rounded=0;whiteSpace=wrap;html=1;fillColor=none;" vertex="1" parent="1">
          <mxGeometry x="740" y="470" width="20" height="60" as="geometry"/>
        </mxCell>
        <mxCell id="HJ_L1rE2T7s1D5HdSCg_-29" value="" style="endArrow=none;dashed=1;html=1;strokeWidth=1;" edge="1" parent="1">
          <mxGeometry width="50" height="50" relative="1" as="geometry">
            <mxPoint x="720" y="499.76" as="sourcePoint"/>
            <mxPoint x="730" y="499.76" as="targetPoint"/>
          </mxGeometry>
        </mxCell>
        <mxCell id="HJ_L1rE2T7s1D5HdSCg_-30" value="" style="whiteSpace=wrap;html=1;aspect=fixed;fillColor=#0050ef;strokeColor=#001DBC;fontColor=#ffffff;" vertex="1" parent="1">
          <mxGeometry x="665" y="510" width="10" height="10" as="geometry"/>
        </mxCell>
        <mxCell id="HJ_L1rE2T7s1D5HdSCg_-31" value="" style="whiteSpace=wrap;html=1;aspect=fixed;fillColor=#e51400;strokeColor=#B20000;fontColor=#ffffff;" vertex="1" parent="1">
          <mxGeometry x="745" y="510" width="10" height="10" as="geometry"/>
        </mxCell>
        <mxCell id="HJ_L1rE2T7s1D5HdSCg_-33" value="" style="whiteSpace=wrap;html=1;aspect=fixed;fillColor=#e51400;strokeColor=#B20000;fontColor=#ffffff;" vertex="1" parent="1">
          <mxGeometry x="665" y="480" width="10" height="10" as="geometry"/>
        </mxCell>
        <mxCell id="HJ_L1rE2T7s1D5HdSCg_-35" value="" style="whiteSpace=wrap;html=1;aspect=fixed;fillColor=#008a00;strokeColor=#005700;fontColor=#ffffff;" vertex="1" parent="1">
          <mxGeometry x="695" y="510" width="10" height="10" as="geometry"/>
        </mxCell>
        <mxCell id="HJ_L1rE2T7s1D5HdSCg_-37" value="" style="whiteSpace=wrap;html=1;aspect=fixed;fillColor=#0050ef;strokeColor=#001DBC;fontColor=#ffffff;" vertex="1" parent="1">
          <mxGeometry x="745" y="480" width="10" height="10" as="geometry"/>
        </mxCell>
        <mxCell id="HJ_L1rE2T7s1D5HdSCg_-38" value="Hosts" style="text;html=1;strokeColor=none;fillColor=none;align=center;verticalAlign=middle;whiteSpace=wrap;rounded=0;" vertex="1" parent="1">
          <mxGeometry x="680" y="530" width="40" height="20" as="geometry"/>
        </mxCell>
        <mxCell id="HJ_L1rE2T7s1D5HdSCg_-40" value="" style="whiteSpace=wrap;html=1;aspect=fixed;fillColor=#008a00;strokeColor=#005700;fontColor=#ffffff;" vertex="1" parent="1">
          <mxGeometry x="590" y="480" width="10" height="10" as="geometry"/>
        </mxCell>
        <mxCell id="HJ_L1rE2T7s1D5HdSCg_-41" value="" style="whiteSpace=wrap;html=1;aspect=fixed;fillColor=#0050ef;strokeColor=#001DBC;fontColor=#ffffff;" vertex="1" parent="1">
          <mxGeometry x="510" y="480" width="10" height="10" as="geometry"/>
        </mxCell>
        <mxCell id="HJ_L1rE2T7s1D5HdSCg_-42" value="" style="whiteSpace=wrap;html=1;aspect=fixed;fillColor=#0050ef;strokeColor=#001DBC;fontColor=#ffffff;" vertex="1" parent="1">
          <mxGeometry x="695" y="480" width="10" height="10" as="geometry"/>
        </mxCell>
        <mxCell id="HJ_L1rE2T7s1D5HdSCg_-43" value="Agg &lt;br&gt;Switch" style="rounded=1;whiteSpace=wrap;html=1;fillColor=#ffcc99;strokeColor=none;" vertex="1" parent="1">
          <mxGeometry x="430" y="250" width="80" height="40" as="geometry"/>
        </mxCell>
        <mxCell id="HJ_L1rE2T7s1D5HdSCg_-45" value="Agg&lt;br&gt;Switch" style="rounded=1;whiteSpace=wrap;html=1;fillColor=#ffcc99;strokeColor=none;" vertex="1" parent="1">
          <mxGeometry x="576" y="250" width="80" height="40" as="geometry"/>
        </mxCell>
        <mxCell id="HJ_L1rE2T7s1D5HdSCg_-46" value="" style="endArrow=none;html=1;strokeWidth=1;exitX=0.5;exitY=0;exitDx=0;exitDy=0;entryX=0.5;entryY=1;entryDx=0;entryDy=0;" edge="1" parent="1" source="LaCptTWRg6OUw0mQEfFn-16" target="HJ_L1rE2T7s1D5HdSCg_-43">
          <mxGeometry width="50" height="50" relative="1" as="geometry">
            <mxPoint x="230" y="340" as="sourcePoint"/>
            <mxPoint x="280" y="290" as="targetPoint"/>
          </mxGeometry>
        </mxCell>
        <mxCell id="HJ_L1rE2T7s1D5HdSCg_-48" value="" style="endArrow=none;html=1;strokeWidth=1;entryX=0.5;entryY=1;entryDx=0;entryDy=0;exitX=0.5;exitY=0;exitDx=0;exitDy=0;" edge="1" parent="1" source="LaCptTWRg6OUw0mQEfFn-1" target="HJ_L1rE2T7s1D5HdSCg_-43">
          <mxGeometry width="50" height="50" relative="1" as="geometry">
            <mxPoint x="365" y="350" as="sourcePoint"/>
            <mxPoint x="415" y="300" as="targetPoint"/>
          </mxGeometry>
        </mxCell>
        <mxCell id="HJ_L1rE2T7s1D5HdSCg_-49" value="" style="endArrow=none;html=1;strokeWidth=1;exitX=0.5;exitY=0;exitDx=0;exitDy=0;entryX=0.5;entryY=1;entryDx=0;entryDy=0;" edge="1" parent="1" source="LaCptTWRg6OUw0mQEfFn-1" target="HJ_L1rE2T7s1D5HdSCg_-45">
          <mxGeometry width="50" height="50" relative="1" as="geometry">
            <mxPoint x="310" y="350" as="sourcePoint"/>
            <mxPoint x="360" y="300" as="targetPoint"/>
          </mxGeometry>
        </mxCell>
        <mxCell id="HJ_L1rE2T7s1D5HdSCg_-50" value="" style="endArrow=none;html=1;strokeWidth=1;entryX=0.5;entryY=1;entryDx=0;entryDy=0;exitX=0.5;exitY=0;exitDx=0;exitDy=0;" edge="1" parent="1" source="LaCptTWRg6OUw0mQEfFn-2" target="HJ_L1rE2T7s1D5HdSCg_-43">
          <mxGeometry width="50" height="50" relative="1" as="geometry">
            <mxPoint x="270" y="350" as="sourcePoint"/>
            <mxPoint x="320" y="300" as="targetPoint"/>
          </mxGeometry>
        </mxCell>
        <mxCell id="HJ_L1rE2T7s1D5HdSCg_-51" value="" style="endArrow=none;html=1;strokeWidth=1;exitX=0.5;exitY=0;exitDx=0;exitDy=0;entryX=0.5;entryY=1;entryDx=0;entryDy=0;" edge="1" parent="1" source="LaCptTWRg6OUw0mQEfFn-2" target="HJ_L1rE2T7s1D5HdSCg_-45">
          <mxGeometry width="50" height="50" relative="1" as="geometry">
            <mxPoint x="270" y="350" as="sourcePoint"/>
            <mxPoint x="320" y="300" as="targetPoint"/>
          </mxGeometry>
        </mxCell>
        <mxCell id="HJ_L1rE2T7s1D5HdSCg_-52" value="" style="endArrow=none;html=1;strokeWidth=1;exitX=0.5;exitY=0;exitDx=0;exitDy=0;entryX=0.5;entryY=1;entryDx=0;entryDy=0;" edge="1" parent="1" source="LaCptTWRg6OUw0mQEfFn-11" target="HJ_L1rE2T7s1D5HdSCg_-43">
          <mxGeometry width="50" height="50" relative="1" as="geometry">
            <mxPoint x="270" y="340" as="sourcePoint"/>
            <mxPoint x="320" y="290" as="targetPoint"/>
          </mxGeometry>
        </mxCell>
        <mxCell id="HJ_L1rE2T7s1D5HdSCg_-53" value="" style="endArrow=none;html=1;strokeWidth=1;exitX=0.5;exitY=0;exitDx=0;exitDy=0;" edge="1" parent="1" source="LaCptTWRg6OUw0mQEfFn-11">
          <mxGeometry width="50" height="50" relative="1" as="geometry">
            <mxPoint x="260" y="350" as="sourcePoint"/>
            <mxPoint x="610" y="290" as="targetPoint"/>
          </mxGeometry>
        </mxCell>
        <mxCell id="HJ_L1rE2T7s1D5HdSCg_-54" value="" style="endArrow=none;html=1;strokeWidth=1;exitX=0.5;exitY=0;exitDx=0;exitDy=0;entryX=0.5;entryY=1;entryDx=0;entryDy=0;" edge="1" parent="1" source="LaCptTWRg6OUw0mQEfFn-12" target="HJ_L1rE2T7s1D5HdSCg_-43">
          <mxGeometry width="50" height="50" relative="1" as="geometry">
            <mxPoint x="260" y="350" as="sourcePoint"/>
            <mxPoint x="310" y="300" as="targetPoint"/>
          </mxGeometry>
        </mxCell>
        <mxCell id="HJ_L1rE2T7s1D5HdSCg_-55" value="" style="endArrow=none;html=1;strokeWidth=1;exitX=0.5;exitY=0;exitDx=0;exitDy=0;entryX=0.5;entryY=1;entryDx=0;entryDy=0;" edge="1" parent="1" source="LaCptTWRg6OUw0mQEfFn-12" target="HJ_L1rE2T7s1D5HdSCg_-45">
          <mxGeometry width="50" height="50" relative="1" as="geometry">
            <mxPoint x="285" y="350" as="sourcePoint"/>
            <mxPoint x="335" y="300" as="targetPoint"/>
          </mxGeometry>
        </mxCell>
        <mxCell id="HJ_L1rE2T7s1D5HdSCg_-57" value="" style="shape=flexArrow;endArrow=classic;startArrow=classic;html=1;strokeWidth=1;exitX=0.5;exitY=0;exitDx=0;exitDy=0;" edge="1" parent="1">
          <mxGeometry width="50" height="50" relative="1" as="geometry">
            <mxPoint x="609.5" y="250" as="sourcePoint"/>
            <mxPoint x="609.5" y="200" as="targetPoint"/>
          </mxGeometry>
        </mxCell>
        <mxCell id="HJ_L1rE2T7s1D5HdSCg_-58" value="" style="endArrow=none;html=1;strokeWidth=1;exitX=0.5;exitY=0;exitDx=0;exitDy=0;entryX=0.5;entryY=1;entryDx=0;entryDy=0;" edge="1" parent="1" source="LaCptTWRg6OUw0mQEfFn-16" target="HJ_L1rE2T7s1D5HdSCg_-45">
          <mxGeometry width="50" height="50" relative="1" as="geometry">
            <mxPoint x="755" y="370" as="sourcePoint"/>
            <mxPoint x="510" y="280" as="targetPoint"/>
          </mxGeometry>
        </mxCell>
        <mxCell id="HJ_L1rE2T7s1D5HdSCg_-59" value="" style="endArrow=none;html=1;strokeWidth=1;exitX=0.5;exitY=0;exitDx=0;exitDy=0;entryX=0.505;entryY=1.075;entryDx=0;entryDy=0;entryPerimeter=0;" edge="1" parent="1" source="LaCptTWRg6OUw0mQEfFn-17" target="HJ_L1rE2T7s1D5HdSCg_-43">
          <mxGeometry width="50" height="50" relative="1" as="geometry">
            <mxPoint x="735" y="370" as="sourcePoint"/>
            <mxPoint x="660" y="280" as="targetPoint"/>
          </mxGeometry>
        </mxCell>
        <mxCell id="HJ_L1rE2T7s1D5HdSCg_-60" value="" style="endArrow=none;html=1;strokeWidth=1;exitX=0.5;exitY=0;exitDx=0;exitDy=0;entryX=0.5;entryY=1;entryDx=0;entryDy=0;" edge="1" parent="1" source="LaCptTWRg6OUw0mQEfFn-17" target="HJ_L1rE2T7s1D5HdSCg_-45">
          <mxGeometry width="50" height="50" relative="1" as="geometry">
            <mxPoint x="740" y="370" as="sourcePoint"/>
            <mxPoint x="665" y="280" as="targetPoint"/>
          </mxGeometry>
        </mxCell>
        <mxCell id="HJ_L1rE2T7s1D5HdSCg_-61" value="" style="shape=flexArrow;endArrow=classic;startArrow=classic;html=1;strokeWidth=1;exitX=0.5;exitY=0;exitDx=0;exitDy=0;" edge="1" parent="1">
          <mxGeometry width="50" height="50" relative="1" as="geometry">
            <mxPoint x="469.6600000000002" y="250" as="sourcePoint"/>
            <mxPoint x="469.6600000000002" y="199.9999999999999" as="targetPoint"/>
          </mxGeometry>
        </mxCell>
      </root>
    </mxGraphModel>
  </diagram>
</mxfile>
